<?xml version="1.0" encoding="utf-8"?>
<!-- Generator: Adobe Illustrator 25.0.0, SVG Export Plug-In . SVG Version: 6.00 Build 0)  -->
<svg version="1.1" id="Layer_1" xmlns="http://www.w3.org/2000/svg" xmlns:xlink="http://www.w3.org/1999/xlink" x="0px" y="0px"
	 viewBox="0 0 49 49" style="enable-background:new 0 0 49 49;" xml:space="preserve">
<style type="text/css">
	.st0{fill:#989898;}
	.st1{font-family:'Calibri-Bold';}
	.st2{font-size:6px;}
</style>
<path class="st0" d="M22.3,24.5h4.7c0.6,0,1.2-0.5,1.2-1.2v-5.8h1.8c0.6,0,1.2-0.5,1.2-1.2c0-0.3-0.1-0.6-0.3-0.8l-5.4-5.3
	c-0.4-0.5-1.2-0.5-1.6,0c0,0,0,0,0,0l-5.3,5.3c-0.5,0.5-0.5,1.2,0,1.6c0.2,0.2,0.5,0.3,0.8,0.3h1.9v5.8C21.1,24,21.6,24.5,22.3,24.5
	C22.3,24.5,22.3,24.5,22.3,24.5z M17.6,26.8h13.9c0.6,0.1,1.1,0.6,1.1,1.3c0,0.6-0.5,1-1.1,1.1h-14c-0.6,0.1-1.2-0.4-1.3-1.1
	s0.4-1.2,1.1-1.3C17.5,26.8,17.5,26.8,17.6,26.8L17.6,26.8z"/>
<text transform="matrix(1 0 0 1 7.0914 38.117)" class="st0 st1 st2">Upload Image</text>
</svg>
