<?xml version="1.0" encoding="utf-8"?>
<!-- Generator: Adobe Illustrator 25.0.0, SVG Export Plug-In . SVG Version: 6.00 Build 0)  -->
<svg version="1.1" id="Layer_1" xmlns="http://www.w3.org/2000/svg" xmlns:xlink="http://www.w3.org/1999/xlink" x="0px" y="0px"
	 viewBox="0 0 24 24" style="enable-background:new 0 0 24 24;" xml:space="preserve">
<style type="text/css">
	.st0{fill:none;}
	.st1{fill:#878787;}
</style>
<path class="st0" d="M0,0h24v24H0V0z"/>
<path class="st1" d="M21.8,1.6l-0.2,0l-6.2,2.4L8.5,1.6L2,3.8C1.8,3.9,1.6,4.1,1.6,4.4v17.4c0,0.3,0.3,0.6,0.6,0.6l0.2,0L8.5,20
	l6.9,2.4l6.5-2.2c0.2-0.1,0.4-0.3,0.4-0.6V2.2C22.4,1.9,22.1,1.6,21.8,1.6z M15.5,20.1l-6.9-2.4V3.9l6.9,2.4V20.1z"/>
</svg>
