<svg id="Layer_1" data-name="Layer 1" xmlns="http://www.w3.org/2000/svg" viewBox="0 0 48 48"><defs><style>.cls-1,.cls-2{fill:none;stroke:#878787;stroke-miterlimit:10;}.cls-1{stroke-width:2px;}</style></defs><path class="cls-1" d="M3.5,14.5V8.32a3.8,3.8,0,0,1,4-3.82"/><line class="cls-1" x1="7" y1="4.5" x2="13.5" y2="4.5"/><path class="cls-1" d="M44.5,14.5V8.32a3.8,3.8,0,0,0-4-3.82"/><line class="cls-1" x1="41" y1="4.5" x2="34.5" y2="4.5"/><path class="cls-1" d="M3.5,34.5v6.18a3.8,3.8,0,0,0,4,3.82"/><line class="cls-1" x1="7" y1="44.5" x2="13.5" y2="44.5"/><path class="cls-1" d="M44.5,34.5v6.18a3.8,3.8,0,0,1-4,3.82"/><line class="cls-1" x1="41" y1="44.5" x2="34.5" y2="44.5"/><line class="cls-2" x1="3.5" y1="24.5" x2="44.5" y2="24.5"/></svg>